<mxfile host="app.diagrams.net" modified="2023-11-22T17:37:42.259Z" agent="Mozilla/5.0 (Windows NT 10.0; Win64; x64) AppleWebKit/537.36 (KHTML, like Gecko) Chrome/119.0.0.0 Safari/537.36" etag="FWa8K1RRNivk-2eJyH7p" version="22.1.3" type="google" pages="4">
  <diagram name="Level 0" id="CRZ0UrVJ9To_kP-oazD4">
    <mxGraphModel grid="1" page="1" gridSize="10" guides="1" tooltips="1" connect="1" arrows="1" fold="1" pageScale="1" pageWidth="850" pageHeight="1100" math="0" shadow="0">
      <root>
        <mxCell id="0" />
        <mxCell id="1" parent="0" />
        <mxCell id="pv0Wgu1Ss7igFi8_RhUN-2" style="edgeStyle=none;rounded=0;orthogonalLoop=1;jettySize=auto;html=1;" edge="1" parent="1" source="tkL9Y_VezgURKQyTsPDt-1">
          <mxGeometry relative="1" as="geometry">
            <mxPoint x="280" y="345" as="targetPoint" />
          </mxGeometry>
        </mxCell>
        <mxCell id="tkL9Y_VezgURKQyTsPDt-1" value="Student Lifestyle Management System - CamBuzz" style="ellipse;whiteSpace=wrap;html=1;" vertex="1" parent="1">
          <mxGeometry x="410" y="285" width="130" height="120" as="geometry" />
        </mxCell>
        <mxCell id="tkL9Y_VezgURKQyTsPDt-3" value="Admin" style="rounded=0;whiteSpace=wrap;html=1;" vertex="1" parent="1">
          <mxGeometry x="170" y="190" width="110" height="50" as="geometry" />
        </mxCell>
        <mxCell id="tkL9Y_VezgURKQyTsPDt-10" style="edgeStyle=orthogonalEdgeStyle;rounded=0;orthogonalLoop=1;jettySize=auto;html=1;" edge="1" parent="1" source="tkL9Y_VezgURKQyTsPDt-4" target="tkL9Y_VezgURKQyTsPDt-1">
          <mxGeometry relative="1" as="geometry" />
        </mxCell>
        <mxCell id="tkL9Y_VezgURKQyTsPDt-4" value="Student" style="rounded=0;whiteSpace=wrap;html=1;" vertex="1" parent="1">
          <mxGeometry x="170" y="320" width="110" height="50" as="geometry" />
        </mxCell>
        <mxCell id="tkL9Y_VezgURKQyTsPDt-11" style="rounded=0;orthogonalLoop=1;jettySize=auto;html=1;entryX=0.231;entryY=0.933;entryDx=0;entryDy=0;entryPerimeter=0;" edge="1" parent="1" source="tkL9Y_VezgURKQyTsPDt-5" target="tkL9Y_VezgURKQyTsPDt-1">
          <mxGeometry relative="1" as="geometry">
            <mxPoint x="370" y="420" as="targetPoint" />
          </mxGeometry>
        </mxCell>
        <mxCell id="tkL9Y_VezgURKQyTsPDt-5" value="Organisation/ Club/ Society" style="rounded=0;whiteSpace=wrap;html=1;" vertex="1" parent="1">
          <mxGeometry x="170" y="450" width="110" height="50" as="geometry" />
        </mxCell>
        <mxCell id="tkL9Y_VezgURKQyTsPDt-9" style="rounded=0;orthogonalLoop=1;jettySize=auto;html=1;entryX=0.269;entryY=0.083;entryDx=0;entryDy=0;entryPerimeter=0;" edge="1" parent="1" target="tkL9Y_VezgURKQyTsPDt-1">
          <mxGeometry relative="1" as="geometry">
            <mxPoint x="279.9950000000001" y="220" as="sourcePoint" />
            <mxPoint x="422.45000000000005" y="295" as="targetPoint" />
          </mxGeometry>
        </mxCell>
        <mxCell id="tkL9Y_VezgURKQyTsPDt-13" value="0.1" style="text;html=1;align=center;verticalAlign=middle;resizable=0;points=[];autosize=1;strokeColor=none;fillColor=none;" vertex="1" parent="1">
          <mxGeometry x="200" y="160" width="40" height="30" as="geometry" />
        </mxCell>
        <mxCell id="tkL9Y_VezgURKQyTsPDt-14" value="0.2" style="text;html=1;align=center;verticalAlign=middle;resizable=0;points=[];autosize=1;strokeColor=none;fillColor=none;" vertex="1" parent="1">
          <mxGeometry x="200" y="290" width="40" height="30" as="geometry" />
        </mxCell>
        <mxCell id="tkL9Y_VezgURKQyTsPDt-15" value="0.3" style="text;html=1;align=center;verticalAlign=middle;resizable=0;points=[];autosize=1;strokeColor=none;fillColor=none;" vertex="1" parent="1">
          <mxGeometry x="200" y="420" width="40" height="30" as="geometry" />
        </mxCell>
        <mxCell id="pv0Wgu1Ss7igFi8_RhUN-1" style="edgeStyle=none;rounded=0;orthogonalLoop=1;jettySize=auto;html=1;entryX=0.993;entryY=0.875;entryDx=0;entryDy=0;entryPerimeter=0;exitX=0.127;exitY=0.159;exitDx=0;exitDy=0;exitPerimeter=0;" edge="1" parent="1" source="tkL9Y_VezgURKQyTsPDt-1" target="tkL9Y_VezgURKQyTsPDt-3">
          <mxGeometry relative="1" as="geometry" />
        </mxCell>
        <mxCell id="pv0Wgu1Ss7igFi8_RhUN-3" style="edgeStyle=none;rounded=0;orthogonalLoop=1;jettySize=auto;html=1;entryX=1;entryY=0.416;entryDx=0;entryDy=0;entryPerimeter=0;exitX=0.357;exitY=0.988;exitDx=0;exitDy=0;exitPerimeter=0;" edge="1" parent="1" source="tkL9Y_VezgURKQyTsPDt-1" target="tkL9Y_VezgURKQyTsPDt-5">
          <mxGeometry relative="1" as="geometry" />
        </mxCell>
        <mxCell id="T2OOuJtac_KpUjGB5mIH-1" value="" style="rounded=0;whiteSpace=wrap;html=1;fillColor=none;strokeWidth=4;" vertex="1" parent="1">
          <mxGeometry x="150" y="150" width="430" height="370" as="geometry" />
        </mxCell>
      </root>
    </mxGraphModel>
  </diagram>
  <diagram id="Bj22esSXi1kSdgLKDqin" name="Level 1.1">
    <mxGraphModel grid="1" page="1" gridSize="10" guides="1" tooltips="1" connect="1" arrows="1" fold="1" pageScale="1" pageWidth="850" pageHeight="1100" math="0" shadow="0">
      <root>
        <mxCell id="0" />
        <mxCell id="1" parent="0" />
        <mxCell id="NOFfjDq3f6Zf-8-TGKK0-2" style="edgeStyle=none;rounded=0;orthogonalLoop=1;jettySize=auto;html=1;entryX=0;entryY=0.5;entryDx=0;entryDy=0;" edge="1" parent="1" source="PsGA4BchfydPujM3gVuK-1" target="NOFfjDq3f6Zf-8-TGKK0-1">
          <mxGeometry relative="1" as="geometry" />
        </mxCell>
        <mxCell id="PsGA4BchfydPujM3gVuK-1" value="Admin" style="rounded=0;whiteSpace=wrap;html=1;shadow=0;glass=0;" vertex="1" parent="1">
          <mxGeometry x="90" y="260" width="150" height="90" as="geometry" />
        </mxCell>
        <mxCell id="PsGA4BchfydPujM3gVuK-17" style="rounded=0;orthogonalLoop=1;jettySize=auto;html=1;entryX=0;entryY=0.5;entryDx=0;entryDy=0;" edge="1" parent="1" source="PsGA4BchfydPujM3gVuK-2" target="PsGA4BchfydPujM3gVuK-6">
          <mxGeometry relative="1" as="geometry" />
        </mxCell>
        <mxCell id="PsGA4BchfydPujM3gVuK-2" value="Insert, update, delete and manage Student details" style="ellipse;whiteSpace=wrap;html=1;aspect=fixed;" vertex="1" parent="1">
          <mxGeometry x="540" y="30" width="170" height="170" as="geometry" />
        </mxCell>
        <mxCell id="PsGA4BchfydPujM3gVuK-18" style="edgeStyle=orthogonalEdgeStyle;rounded=0;orthogonalLoop=1;jettySize=auto;html=1;entryX=0;entryY=0.5;entryDx=0;entryDy=0;" edge="1" parent="1" source="PsGA4BchfydPujM3gVuK-3" target="PsGA4BchfydPujM3gVuK-4">
          <mxGeometry relative="1" as="geometry" />
        </mxCell>
        <mxCell id="PsGA4BchfydPujM3gVuK-3" value="Insert, update, delete and manage Organisation Details" style="ellipse;whiteSpace=wrap;html=1;aspect=fixed;" vertex="1" parent="1">
          <mxGeometry x="540" y="220" width="170" height="170" as="geometry" />
        </mxCell>
        <mxCell id="PsGA4BchfydPujM3gVuK-19" style="edgeStyle=orthogonalEdgeStyle;rounded=0;orthogonalLoop=1;jettySize=auto;html=1;entryX=0;entryY=0.5;entryDx=0;entryDy=0;" edge="1" parent="1" source="PsGA4BchfydPujM3gVuK-4" target="PsGA4BchfydPujM3gVuK-7">
          <mxGeometry relative="1" as="geometry" />
        </mxCell>
        <mxCell id="PsGA4BchfydPujM3gVuK-4" value="Approve Organisation Registration" style="ellipse;whiteSpace=wrap;html=1;aspect=fixed;" vertex="1" parent="1">
          <mxGeometry x="790" y="220" width="170" height="170" as="geometry" />
        </mxCell>
        <mxCell id="PsGA4BchfydPujM3gVuK-20" style="rounded=0;orthogonalLoop=1;jettySize=auto;html=1;entryX=0;entryY=0.5;entryDx=0;entryDy=0;" edge="1" parent="1" source="PsGA4BchfydPujM3gVuK-5" target="PsGA4BchfydPujM3gVuK-8">
          <mxGeometry relative="1" as="geometry" />
        </mxCell>
        <mxCell id="PsGA4BchfydPujM3gVuK-21" style="rounded=0;orthogonalLoop=1;jettySize=auto;html=1;" edge="1" parent="1" source="PsGA4BchfydPujM3gVuK-5" target="PsGA4BchfydPujM3gVuK-9">
          <mxGeometry relative="1" as="geometry" />
        </mxCell>
        <mxCell id="PsGA4BchfydPujM3gVuK-5" value="Insert, update, delete and manage vehicle listing, booking, recommendation, restuarant, event listing tables" style="ellipse;whiteSpace=wrap;html=1;aspect=fixed;" vertex="1" parent="1">
          <mxGeometry x="540" y="420" width="170" height="170" as="geometry" />
        </mxCell>
        <mxCell id="4H3Md3rkcZbIIxssGXv2-5" style="edgeStyle=none;rounded=0;orthogonalLoop=1;jettySize=auto;html=1;" edge="1" parent="1">
          <mxGeometry relative="1" as="geometry">
            <mxPoint x="830" y="130" as="sourcePoint" />
            <mxPoint x="710" y="130" as="targetPoint" />
          </mxGeometry>
        </mxCell>
        <mxCell id="PsGA4BchfydPujM3gVuK-6" value="Student&amp;nbsp;Table" style="html=1;dashed=0;whiteSpace=wrap;shape=partialRectangle;right=0;left=0;" vertex="1" parent="1">
          <mxGeometry x="830" y="85" width="140" height="60" as="geometry" />
        </mxCell>
        <mxCell id="4H3Md3rkcZbIIxssGXv2-6" style="edgeStyle=none;rounded=0;orthogonalLoop=1;jettySize=auto;html=1;" edge="1" parent="1">
          <mxGeometry relative="1" as="geometry">
            <mxPoint x="1010" y="320" as="sourcePoint" />
            <mxPoint x="960" y="320" as="targetPoint" />
          </mxGeometry>
        </mxCell>
        <mxCell id="PsGA4BchfydPujM3gVuK-7" value="Organisation&amp;nbsp;Table" style="html=1;dashed=0;whiteSpace=wrap;shape=partialRectangle;right=0;left=0;" vertex="1" parent="1">
          <mxGeometry x="1010" y="275" width="140" height="60" as="geometry" />
        </mxCell>
        <mxCell id="PsGA4BchfydPujM3gVuK-8" value="RideLisiting&amp;nbsp;Table" style="html=1;dashed=0;whiteSpace=wrap;shape=partialRectangle;right=0;left=0;" vertex="1" parent="1">
          <mxGeometry x="830" y="440" width="140" height="60" as="geometry" />
        </mxCell>
        <mxCell id="4H3Md3rkcZbIIxssGXv2-8" style="edgeStyle=none;rounded=0;orthogonalLoop=1;jettySize=auto;html=1;entryX=0.941;entryY=0.711;entryDx=0;entryDy=0;entryPerimeter=0;" edge="1" parent="1" target="PsGA4BchfydPujM3gVuK-5">
          <mxGeometry relative="1" as="geometry">
            <mxPoint x="830" y="573.549090909091" as="sourcePoint" />
            <mxPoint x="707.0049248052042" y="540.0049794923285" as="targetPoint" />
          </mxGeometry>
        </mxCell>
        <mxCell id="PsGA4BchfydPujM3gVuK-9" value="RideBooking&amp;nbsp;Table" style="html=1;dashed=0;whiteSpace=wrap;shape=partialRectangle;right=0;left=0;" vertex="1" parent="1">
          <mxGeometry x="830" y="550" width="140" height="60" as="geometry" />
        </mxCell>
        <mxCell id="4H3Md3rkcZbIIxssGXv2-10" style="edgeStyle=none;rounded=0;orthogonalLoop=1;jettySize=auto;html=1;" edge="1" parent="1" source="PsGA4BchfydPujM3gVuK-10" target="PsGA4BchfydPujM3gVuK-5">
          <mxGeometry relative="1" as="geometry" />
        </mxCell>
        <mxCell id="PsGA4BchfydPujM3gVuK-10" value="Recommendation&amp;nbsp;Table" style="html=1;dashed=0;whiteSpace=wrap;shape=partialRectangle;right=0;left=0;" vertex="1" parent="1">
          <mxGeometry x="830" y="660" width="140" height="60" as="geometry" />
        </mxCell>
        <mxCell id="4H3Md3rkcZbIIxssGXv2-11" style="edgeStyle=none;rounded=0;orthogonalLoop=1;jettySize=auto;html=1;" edge="1" parent="1" source="PsGA4BchfydPujM3gVuK-11" target="PsGA4BchfydPujM3gVuK-5">
          <mxGeometry relative="1" as="geometry" />
        </mxCell>
        <mxCell id="PsGA4BchfydPujM3gVuK-11" value="Restaurant&amp;nbsp;Table" style="html=1;dashed=0;whiteSpace=wrap;shape=partialRectangle;right=0;left=0;" vertex="1" parent="1">
          <mxGeometry x="650" y="660" width="140" height="60" as="geometry" />
        </mxCell>
        <mxCell id="4H3Md3rkcZbIIxssGXv2-12" style="edgeStyle=none;rounded=0;orthogonalLoop=1;jettySize=auto;html=1;" edge="1" parent="1" source="PsGA4BchfydPujM3gVuK-12" target="PsGA4BchfydPujM3gVuK-5">
          <mxGeometry relative="1" as="geometry" />
        </mxCell>
        <mxCell id="PsGA4BchfydPujM3gVuK-12" value="EventListing&amp;nbsp;Table" style="html=1;dashed=0;whiteSpace=wrap;shape=partialRectangle;right=0;left=0;" vertex="1" parent="1">
          <mxGeometry x="470" y="660" width="140" height="60" as="geometry" />
        </mxCell>
        <mxCell id="PsGA4BchfydPujM3gVuK-22" style="edgeStyle=none;rounded=0;orthogonalLoop=1;jettySize=auto;html=1;entryX=0;entryY=0;entryDx=0;entryDy=0;exitX=0.88;exitY=0.835;exitDx=0;exitDy=0;exitPerimeter=0;" edge="1" parent="1" source="PsGA4BchfydPujM3gVuK-5" target="PsGA4BchfydPujM3gVuK-10">
          <mxGeometry relative="1" as="geometry">
            <mxPoint x="685.5876463452483" y="560.0025442761457" as="sourcePoint" />
            <mxPoint x="845.5054054054057" y="667.5" as="targetPoint" />
          </mxGeometry>
        </mxCell>
        <mxCell id="PsGA4BchfydPujM3gVuK-23" style="edgeStyle=none;rounded=0;orthogonalLoop=1;jettySize=auto;html=1;exitX=0.696;exitY=0.965;exitDx=0;exitDy=0;exitPerimeter=0;" edge="1" parent="1" source="PsGA4BchfydPujM3gVuK-5">
          <mxGeometry relative="1" as="geometry">
            <mxPoint x="655.3992980049993" y="580.4371665281466" as="sourcePoint" />
            <mxPoint x="696.23" y="660" as="targetPoint" />
            <Array as="points">
              <mxPoint x="681.23" y="630" />
            </Array>
          </mxGeometry>
        </mxCell>
        <mxCell id="PsGA4BchfydPujM3gVuK-24" style="edgeStyle=none;rounded=0;orthogonalLoop=1;jettySize=auto;html=1;exitX=0.318;exitY=0.974;exitDx=0;exitDy=0;exitPerimeter=0;" edge="1" parent="1" source="PsGA4BchfydPujM3gVuK-5">
          <mxGeometry relative="1" as="geometry">
            <mxPoint x="595.4002434490301" y="582.3098202174167" as="sourcePoint" />
            <mxPoint x="559.513783783784" y="660" as="targetPoint" />
          </mxGeometry>
        </mxCell>
        <mxCell id="PsGA4BchfydPujM3gVuK-25" value="0.1.3" style="text;html=1;strokeColor=none;fillColor=none;align=center;verticalAlign=middle;whiteSpace=wrap;rounded=0;" vertex="1" parent="1">
          <mxGeometry x="595" y="230" width="60" height="30" as="geometry" />
        </mxCell>
        <mxCell id="PsGA4BchfydPujM3gVuK-26" value="" style="endArrow=none;html=1;rounded=0;entryX=0.914;entryY=0.224;entryDx=0;entryDy=0;entryPerimeter=0;exitX=0.08;exitY=0.223;exitDx=0;exitDy=0;exitPerimeter=0;" edge="1" parent="1">
          <mxGeometry width="50" height="50" relative="1" as="geometry">
            <mxPoint x="553.6000000000001" y="257.90999999999985" as="sourcePoint" />
            <mxPoint x="695.3800000000001" y="258.08000000000004" as="targetPoint" />
          </mxGeometry>
        </mxCell>
        <mxCell id="PsGA4BchfydPujM3gVuK-27" value="0.1.4" style="text;html=1;strokeColor=none;fillColor=none;align=center;verticalAlign=middle;whiteSpace=wrap;rounded=0;" vertex="1" parent="1">
          <mxGeometry x="845.51" y="230" width="60" height="30" as="geometry" />
        </mxCell>
        <mxCell id="PsGA4BchfydPujM3gVuK-28" value="" style="endArrow=none;html=1;rounded=0;entryX=0.914;entryY=0.224;entryDx=0;entryDy=0;entryPerimeter=0;exitX=0.08;exitY=0.223;exitDx=0;exitDy=0;exitPerimeter=0;" edge="1" parent="1">
          <mxGeometry width="50" height="50" relative="1" as="geometry">
            <mxPoint x="804.1100000000001" y="257.90999999999985" as="sourcePoint" />
            <mxPoint x="945.8900000000001" y="258.08000000000004" as="targetPoint" />
          </mxGeometry>
        </mxCell>
        <mxCell id="PsGA4BchfydPujM3gVuK-29" value="0.1.2" style="text;html=1;strokeColor=none;fillColor=none;align=center;verticalAlign=middle;whiteSpace=wrap;rounded=0;" vertex="1" parent="1">
          <mxGeometry x="595" y="40" width="60" height="30" as="geometry" />
        </mxCell>
        <mxCell id="PsGA4BchfydPujM3gVuK-30" value="" style="endArrow=none;html=1;rounded=0;entryX=0.914;entryY=0.224;entryDx=0;entryDy=0;entryPerimeter=0;exitX=0.08;exitY=0.223;exitDx=0;exitDy=0;exitPerimeter=0;" edge="1" parent="1">
          <mxGeometry width="50" height="50" relative="1" as="geometry">
            <mxPoint x="553.6000000000001" y="67.90999999999985" as="sourcePoint" />
            <mxPoint x="695.3800000000001" y="68.08000000000004" as="targetPoint" />
          </mxGeometry>
        </mxCell>
        <mxCell id="PsGA4BchfydPujM3gVuK-31" value="0.1.5" style="text;html=1;strokeColor=none;fillColor=none;align=center;verticalAlign=middle;whiteSpace=wrap;rounded=0;" vertex="1" parent="1">
          <mxGeometry x="595.4" y="430" width="60" height="30" as="geometry" />
        </mxCell>
        <mxCell id="PsGA4BchfydPujM3gVuK-32" value="" style="endArrow=none;html=1;rounded=0;entryX=0.914;entryY=0.224;entryDx=0;entryDy=0;entryPerimeter=0;exitX=0.08;exitY=0.223;exitDx=0;exitDy=0;exitPerimeter=0;" edge="1" parent="1">
          <mxGeometry width="50" height="50" relative="1" as="geometry">
            <mxPoint x="554.0000000000001" y="457.90999999999985" as="sourcePoint" />
            <mxPoint x="695.7800000000001" y="458.08000000000004" as="targetPoint" />
          </mxGeometry>
        </mxCell>
        <mxCell id="4H3Md3rkcZbIIxssGXv2-7" style="edgeStyle=none;rounded=0;orthogonalLoop=1;jettySize=auto;html=1;entryX=0.995;entryY=0.466;entryDx=0;entryDy=0;entryPerimeter=0;" edge="1" parent="1" source="PsGA4BchfydPujM3gVuK-8" target="PsGA4BchfydPujM3gVuK-5">
          <mxGeometry relative="1" as="geometry" />
        </mxCell>
        <mxCell id="NOFfjDq3f6Zf-8-TGKK0-4" style="edgeStyle=none;rounded=0;orthogonalLoop=1;jettySize=auto;html=1;entryX=0.5;entryY=0;entryDx=0;entryDy=0;" edge="1" parent="1" source="NOFfjDq3f6Zf-8-TGKK0-1" target="NOFfjDq3f6Zf-8-TGKK0-3">
          <mxGeometry relative="1" as="geometry" />
        </mxCell>
        <mxCell id="NOFfjDq3f6Zf-8-TGKK0-1" value="Login" style="ellipse;whiteSpace=wrap;html=1;aspect=fixed;" vertex="1" parent="1">
          <mxGeometry x="300" y="225" width="160" height="160" as="geometry" />
        </mxCell>
        <mxCell id="NOFfjDq3f6Zf-8-TGKK0-7" style="edgeStyle=none;rounded=0;orthogonalLoop=1;jettySize=auto;html=1;" edge="1" parent="1">
          <mxGeometry relative="1" as="geometry">
            <mxPoint x="390" y="460" as="sourcePoint" />
            <mxPoint x="390" y="385" as="targetPoint" />
          </mxGeometry>
        </mxCell>
        <mxCell id="NOFfjDq3f6Zf-8-TGKK0-3" value="Admin Table" style="html=1;dashed=0;whiteSpace=wrap;shape=partialRectangle;right=0;left=0;" vertex="1" parent="1">
          <mxGeometry x="310" y="460" width="140" height="60" as="geometry" />
        </mxCell>
        <mxCell id="NOFfjDq3f6Zf-8-TGKK0-6" style="edgeStyle=orthogonalEdgeStyle;rounded=0;orthogonalLoop=1;jettySize=auto;html=1;entryX=0;entryY=0.5;entryDx=0;entryDy=0;" edge="1" parent="1" source="NOFfjDq3f6Zf-8-TGKK0-1" target="PsGA4BchfydPujM3gVuK-3">
          <mxGeometry relative="1" as="geometry" />
        </mxCell>
        <mxCell id="NOFfjDq3f6Zf-8-TGKK0-11" value="" style="endArrow=classic;html=1;rounded=0;entryX=0.01;entryY=0.474;entryDx=0;entryDy=0;entryPerimeter=0;" edge="1" parent="1" target="PsGA4BchfydPujM3gVuK-2">
          <mxGeometry width="50" height="50" relative="1" as="geometry">
            <mxPoint x="490" y="510" as="sourcePoint" />
            <mxPoint x="490" y="110" as="targetPoint" />
            <Array as="points">
              <mxPoint x="490" y="110" />
            </Array>
          </mxGeometry>
        </mxCell>
        <mxCell id="NOFfjDq3f6Zf-8-TGKK0-12" value="" style="endArrow=classic;html=1;rounded=0;entryX=-0.018;entryY=0.531;entryDx=0;entryDy=0;entryPerimeter=0;" edge="1" parent="1" target="PsGA4BchfydPujM3gVuK-5">
          <mxGeometry width="50" height="50" relative="1" as="geometry">
            <mxPoint x="490" y="510" as="sourcePoint" />
            <mxPoint x="540" y="460" as="targetPoint" />
          </mxGeometry>
        </mxCell>
        <mxCell id="g6CTHXNz04Vk6JQ_Yc_F-1" value="0.1.1" style="text;html=1;strokeColor=none;fillColor=none;align=center;verticalAlign=middle;whiteSpace=wrap;rounded=0;" vertex="1" parent="1">
          <mxGeometry x="349.62" y="245" width="60" height="30" as="geometry" />
        </mxCell>
        <mxCell id="g6CTHXNz04Vk6JQ_Yc_F-2" value="" style="endArrow=none;html=1;rounded=0;entryX=0.914;entryY=0.224;entryDx=0;entryDy=0;entryPerimeter=0;exitX=0.08;exitY=0.223;exitDx=0;exitDy=0;exitPerimeter=0;" edge="1" parent="1">
          <mxGeometry width="50" height="50" relative="1" as="geometry">
            <mxPoint x="308.22000000000014" y="272.90999999999985" as="sourcePoint" />
            <mxPoint x="450.0000000000001" y="273.08000000000004" as="targetPoint" />
          </mxGeometry>
        </mxCell>
        <mxCell id="pBQWxC5aNcfzeW-Cz0b5-1" value="" style="rounded=0;whiteSpace=wrap;html=1;fillColor=none;strokeWidth=4;" vertex="1" parent="1">
          <mxGeometry x="80" y="15" width="1080" height="715" as="geometry" />
        </mxCell>
      </root>
    </mxGraphModel>
  </diagram>
  <diagram id="wR_ssRSUa_shHGqt3n9N" name="Level 1.2">
    <mxGraphModel grid="1" page="1" gridSize="1" guides="1" tooltips="1" connect="1" arrows="1" fold="1" pageScale="1" pageWidth="850" pageHeight="1100" math="0" shadow="0">
      <root>
        <mxCell id="0" />
        <mxCell id="1" parent="0" />
        <mxCell id="6Sa6cGBuMIRTcSy8QH_b-31" style="edgeStyle=none;rounded=0;orthogonalLoop=1;jettySize=auto;html=1;entryX=0;entryY=0.5;entryDx=0;entryDy=0;" edge="1" parent="1" source="ay-7qhqwnVbrnaIZv8nq-1" target="ay-7qhqwnVbrnaIZv8nq-4">
          <mxGeometry relative="1" as="geometry" />
        </mxCell>
        <mxCell id="ay-7qhqwnVbrnaIZv8nq-1" value="Student" style="rounded=0;whiteSpace=wrap;html=1;" vertex="1" parent="1">
          <mxGeometry x="10" y="315" width="120" height="60" as="geometry" />
        </mxCell>
        <mxCell id="jCJzLWTkMJZ6yQlzUb6Y-3" style="edgeStyle=orthogonalEdgeStyle;rounded=0;orthogonalLoop=1;jettySize=auto;html=1;" edge="1" parent="1" source="ay-7qhqwnVbrnaIZv8nq-4" target="jCJzLWTkMJZ6yQlzUb6Y-1">
          <mxGeometry relative="1" as="geometry" />
        </mxCell>
        <mxCell id="6Sa6cGBuMIRTcSy8QH_b-26" style="edgeStyle=none;rounded=0;orthogonalLoop=1;jettySize=auto;html=1;entryX=0;entryY=0.5;entryDx=0;entryDy=0;" edge="1" parent="1" source="ay-7qhqwnVbrnaIZv8nq-4" target="heQETTPATZyXLhlPFw2C-6">
          <mxGeometry relative="1" as="geometry" />
        </mxCell>
        <mxCell id="ay-7qhqwnVbrnaIZv8nq-4" value="Register, Login" style="ellipse;whiteSpace=wrap;html=1;" vertex="1" parent="1">
          <mxGeometry x="190" y="300" width="135" height="90" as="geometry" />
        </mxCell>
        <mxCell id="jCJzLWTkMJZ6yQlzUb6Y-4" style="edgeStyle=orthogonalEdgeStyle;rounded=0;orthogonalLoop=1;jettySize=auto;html=1;entryX=0.617;entryY=0.97;entryDx=0;entryDy=0;entryPerimeter=0;exitX=0.638;exitY=0.046;exitDx=0;exitDy=0;exitPerimeter=0;" edge="1" parent="1" source="jCJzLWTkMJZ6yQlzUb6Y-1" target="ay-7qhqwnVbrnaIZv8nq-4">
          <mxGeometry relative="1" as="geometry">
            <mxPoint x="272" y="470" as="sourcePoint" />
            <mxPoint x="272.5" y="385" as="targetPoint" />
          </mxGeometry>
        </mxCell>
        <mxCell id="jCJzLWTkMJZ6yQlzUb6Y-1" value="Student Table" style="html=1;dashed=0;whiteSpace=wrap;shape=partialRectangle;right=0;left=0;" vertex="1" parent="1">
          <mxGeometry x="202.5" y="470" width="110" height="50" as="geometry" />
        </mxCell>
        <mxCell id="6Sa6cGBuMIRTcSy8QH_b-7" style="edgeStyle=orthogonalEdgeStyle;rounded=0;orthogonalLoop=1;jettySize=auto;html=1;entryX=0;entryY=0.5;entryDx=0;entryDy=0;" edge="1" parent="1" source="jCJzLWTkMJZ6yQlzUb6Y-6" target="heQETTPATZyXLhlPFw2C-1">
          <mxGeometry relative="1" as="geometry" />
        </mxCell>
        <mxCell id="jCJzLWTkMJZ6yQlzUb6Y-6" value="Update Profile, &lt;br&gt;change password, delete account" style="ellipse;whiteSpace=wrap;html=1;" vertex="1" parent="1">
          <mxGeometry x="440" y="60" width="135" height="90" as="geometry" />
        </mxCell>
        <mxCell id="jCJzLWTkMJZ6yQlzUb6Y-7" value="Add, update, delete, &lt;br&gt;view, search, filter rides" style="ellipse;whiteSpace=wrap;html=1;" vertex="1" parent="1">
          <mxGeometry x="437.5" y="175" width="140" height="90" as="geometry" />
        </mxCell>
        <mxCell id="6Sa6cGBuMIRTcSy8QH_b-9" style="edgeStyle=orthogonalEdgeStyle;rounded=0;orthogonalLoop=1;jettySize=auto;html=1;entryX=0.967;entryY=0.671;entryDx=0;entryDy=0;entryPerimeter=0;" edge="1" parent="1" target="jCJzLWTkMJZ6yQlzUb6Y-6">
          <mxGeometry relative="1" as="geometry">
            <mxPoint x="660" y="120" as="sourcePoint" />
            <mxPoint x="575" y="120" as="targetPoint" />
          </mxGeometry>
        </mxCell>
        <mxCell id="heQETTPATZyXLhlPFw2C-1" value="Student Table" style="html=1;dashed=0;whiteSpace=wrap;shape=partialRectangle;right=0;left=0;" vertex="1" parent="1">
          <mxGeometry x="660" y="80" width="110" height="50" as="geometry" />
        </mxCell>
        <mxCell id="heQETTPATZyXLhlPFw2C-4" value="RideListing Table" style="html=1;dashed=0;whiteSpace=wrap;shape=partialRectangle;right=0;left=0;" vertex="1" parent="1">
          <mxGeometry x="660" y="195" width="110" height="50" as="geometry" />
        </mxCell>
        <mxCell id="heQETTPATZyXLhlPFw2C-6" value="Book Rides" style="ellipse;whiteSpace=wrap;html=1;" vertex="1" parent="1">
          <mxGeometry x="440" y="300" width="140" height="90" as="geometry" />
        </mxCell>
        <mxCell id="heQETTPATZyXLhlPFw2C-7" value="RideBooking Table" style="html=1;dashed=0;whiteSpace=wrap;shape=partialRectangle;right=0;left=0;" vertex="1" parent="1">
          <mxGeometry x="660" y="320" width="110" height="50" as="geometry" />
        </mxCell>
        <mxCell id="6Sa6cGBuMIRTcSy8QH_b-1" value="Add, update, delete, &lt;br&gt;view, search, filter recommendations" style="ellipse;whiteSpace=wrap;html=1;" vertex="1" parent="1">
          <mxGeometry x="440" y="420" width="140" height="90" as="geometry" />
        </mxCell>
        <mxCell id="6Sa6cGBuMIRTcSy8QH_b-2" value="Reastaurant Table" style="html=1;dashed=0;whiteSpace=wrap;shape=partialRectangle;right=0;left=0;" vertex="1" parent="1">
          <mxGeometry x="660" y="400" width="110" height="50" as="geometry" />
        </mxCell>
        <mxCell id="6Sa6cGBuMIRTcSy8QH_b-22" style="edgeStyle=none;rounded=0;orthogonalLoop=1;jettySize=auto;html=1;" edge="1" parent="1" source="6Sa6cGBuMIRTcSy8QH_b-3" target="6Sa6cGBuMIRTcSy8QH_b-1">
          <mxGeometry relative="1" as="geometry" />
        </mxCell>
        <mxCell id="6Sa6cGBuMIRTcSy8QH_b-3" value="Recommendation Table" style="html=1;dashed=0;whiteSpace=wrap;shape=partialRectangle;right=0;left=0;" vertex="1" parent="1">
          <mxGeometry x="660" y="490" width="110" height="50" as="geometry" />
        </mxCell>
        <mxCell id="6Sa6cGBuMIRTcSy8QH_b-5" value="View, Register &lt;br&gt;events" style="ellipse;whiteSpace=wrap;html=1;" vertex="1" parent="1">
          <mxGeometry x="440" y="560" width="140" height="90" as="geometry" />
        </mxCell>
        <mxCell id="6Sa6cGBuMIRTcSy8QH_b-17" style="edgeStyle=orthogonalEdgeStyle;rounded=0;orthogonalLoop=1;jettySize=auto;html=1;entryX=1;entryY=0.5;entryDx=0;entryDy=0;" edge="1" parent="1" source="6Sa6cGBuMIRTcSy8QH_b-6" target="6Sa6cGBuMIRTcSy8QH_b-5">
          <mxGeometry relative="1" as="geometry" />
        </mxCell>
        <mxCell id="6Sa6cGBuMIRTcSy8QH_b-6" value="Recommendation Table" style="html=1;dashed=0;whiteSpace=wrap;shape=partialRectangle;right=0;left=0;" vertex="1" parent="1">
          <mxGeometry x="660" y="580" width="110" height="50" as="geometry" />
        </mxCell>
        <mxCell id="6Sa6cGBuMIRTcSy8QH_b-10" style="edgeStyle=orthogonalEdgeStyle;rounded=0;orthogonalLoop=1;jettySize=auto;html=1;entryX=0.969;entryY=0.669;entryDx=0;entryDy=0;entryPerimeter=0;" edge="1" parent="1" target="jCJzLWTkMJZ6yQlzUb6Y-7">
          <mxGeometry relative="1" as="geometry">
            <mxPoint x="664" y="235" as="sourcePoint" />
            <mxPoint x="575" y="235" as="targetPoint" />
          </mxGeometry>
        </mxCell>
        <mxCell id="6Sa6cGBuMIRTcSy8QH_b-11" style="edgeStyle=orthogonalEdgeStyle;rounded=0;orthogonalLoop=1;jettySize=auto;html=1;entryX=0;entryY=0.5;entryDx=0;entryDy=0;" edge="1" parent="1">
          <mxGeometry relative="1" as="geometry">
            <mxPoint x="579" y="220" as="sourcePoint" />
            <mxPoint x="664" y="220" as="targetPoint" />
          </mxGeometry>
        </mxCell>
        <mxCell id="6Sa6cGBuMIRTcSy8QH_b-12" style="edgeStyle=orthogonalEdgeStyle;rounded=0;orthogonalLoop=1;jettySize=auto;html=1;entryX=0;entryY=0.5;entryDx=0;entryDy=0;" edge="1" parent="1">
          <mxGeometry relative="1" as="geometry">
            <mxPoint x="580" y="345" as="sourcePoint" />
            <mxPoint x="660" y="344.52" as="targetPoint" />
          </mxGeometry>
        </mxCell>
        <mxCell id="6Sa6cGBuMIRTcSy8QH_b-13" style="edgeStyle=orthogonalEdgeStyle;rounded=0;orthogonalLoop=1;jettySize=auto;html=1;entryX=0.971;entryY=0.662;entryDx=0;entryDy=0;entryPerimeter=0;" edge="1" parent="1" target="heQETTPATZyXLhlPFw2C-6">
          <mxGeometry relative="1" as="geometry">
            <mxPoint x="660" y="359.52" as="sourcePoint" />
            <mxPoint x="580" y="360" as="targetPoint" />
          </mxGeometry>
        </mxCell>
        <mxCell id="6Sa6cGBuMIRTcSy8QH_b-16" style="edgeStyle=orthogonalEdgeStyle;rounded=0;orthogonalLoop=1;jettySize=auto;html=1;entryX=0;entryY=0.5;entryDx=0;entryDy=0;" edge="1" parent="1">
          <mxGeometry relative="1" as="geometry">
            <mxPoint x="580" y="610" as="sourcePoint" />
            <mxPoint x="660" y="610" as="targetPoint" />
          </mxGeometry>
        </mxCell>
        <mxCell id="6Sa6cGBuMIRTcSy8QH_b-19" style="edgeStyle=none;rounded=0;orthogonalLoop=1;jettySize=auto;html=1;entryX=-0.011;entryY=0.072;entryDx=0;entryDy=0;entryPerimeter=0;" edge="1" parent="1" source="6Sa6cGBuMIRTcSy8QH_b-1" target="6Sa6cGBuMIRTcSy8QH_b-2">
          <mxGeometry relative="1" as="geometry" />
        </mxCell>
        <mxCell id="6Sa6cGBuMIRTcSy8QH_b-20" style="edgeStyle=none;rounded=0;orthogonalLoop=1;jettySize=auto;html=1;entryX=0.993;entryY=0.396;entryDx=0;entryDy=0;entryPerimeter=0;exitX=0.011;exitY=0.368;exitDx=0;exitDy=0;exitPerimeter=0;" edge="1" parent="1" source="6Sa6cGBuMIRTcSy8QH_b-2" target="6Sa6cGBuMIRTcSy8QH_b-1">
          <mxGeometry relative="1" as="geometry" />
        </mxCell>
        <mxCell id="6Sa6cGBuMIRTcSy8QH_b-21" style="edgeStyle=none;rounded=0;orthogonalLoop=1;jettySize=auto;html=1;entryX=-0.004;entryY=0.437;entryDx=0;entryDy=0;entryPerimeter=0;" edge="1" parent="1" target="6Sa6cGBuMIRTcSy8QH_b-3">
          <mxGeometry relative="1" as="geometry">
            <mxPoint x="569.9955983690254" y="488.7017705877354" as="sourcePoint" />
            <mxPoint x="654.69" y="510" as="targetPoint" />
          </mxGeometry>
        </mxCell>
        <mxCell id="6Sa6cGBuMIRTcSy8QH_b-24" value="" style="endArrow=none;html=1;rounded=0;" edge="1" parent="1">
          <mxGeometry width="50" height="50" relative="1" as="geometry">
            <mxPoint x="390" y="600" as="sourcePoint" />
            <mxPoint x="390" y="110" as="targetPoint" />
          </mxGeometry>
        </mxCell>
        <mxCell id="6Sa6cGBuMIRTcSy8QH_b-27" value="" style="endArrow=classic;html=1;rounded=0;entryX=0.001;entryY=0.551;entryDx=0;entryDy=0;entryPerimeter=0;" edge="1" parent="1" target="jCJzLWTkMJZ6yQlzUb6Y-6">
          <mxGeometry width="50" height="50" relative="1" as="geometry">
            <mxPoint x="390" y="110" as="sourcePoint" />
            <mxPoint x="440" y="140" as="targetPoint" />
          </mxGeometry>
        </mxCell>
        <mxCell id="6Sa6cGBuMIRTcSy8QH_b-28" value="" style="endArrow=classic;html=1;rounded=0;" edge="1" parent="1">
          <mxGeometry width="50" height="50" relative="1" as="geometry">
            <mxPoint x="390" y="219.70999999999998" as="sourcePoint" />
            <mxPoint x="440" y="220" as="targetPoint" />
          </mxGeometry>
        </mxCell>
        <mxCell id="6Sa6cGBuMIRTcSy8QH_b-29" value="" style="endArrow=classic;html=1;rounded=0;entryX=0;entryY=0.5;entryDx=0;entryDy=0;" edge="1" parent="1" target="6Sa6cGBuMIRTcSy8QH_b-1">
          <mxGeometry width="50" height="50" relative="1" as="geometry">
            <mxPoint x="390" y="464.71" as="sourcePoint" />
            <mxPoint x="440" y="465" as="targetPoint" />
          </mxGeometry>
        </mxCell>
        <mxCell id="6Sa6cGBuMIRTcSy8QH_b-30" value="" style="endArrow=classic;html=1;rounded=0;entryX=0;entryY=0.5;entryDx=0;entryDy=0;" edge="1" parent="1">
          <mxGeometry width="50" height="50" relative="1" as="geometry">
            <mxPoint x="390" y="600" as="sourcePoint" />
            <mxPoint x="440" y="600.29" as="targetPoint" />
          </mxGeometry>
        </mxCell>
        <mxCell id="QPOlCD46UPtexKca2WSY-1" value="" style="endArrow=none;html=1;rounded=0;entryX=0.889;entryY=0.173;entryDx=0;entryDy=0;entryPerimeter=0;" edge="1" parent="1">
          <mxGeometry width="50" height="50" relative="1" as="geometry">
            <mxPoint x="207.49" y="315" as="sourcePoint" />
            <mxPoint x="307.505" y="315.56999999999994" as="targetPoint" />
            <Array as="points">
              <mxPoint x="277.49" y="316" />
            </Array>
          </mxGeometry>
        </mxCell>
        <mxCell id="QPOlCD46UPtexKca2WSY-2" value="&lt;font style=&quot;font-size: 9px;&quot;&gt;0.2.1&lt;/font&gt;" style="text;html=1;align=center;verticalAlign=middle;resizable=0;points=[];autosize=1;strokeColor=none;fillColor=none;" vertex="1" parent="1">
          <mxGeometry x="237.5" y="293" width="40" height="30" as="geometry" />
        </mxCell>
        <mxCell id="QPOlCD46UPtexKca2WSY-3" value="&lt;font style=&quot;font-size: 9px;&quot;&gt;0.2.2&lt;/font&gt;" style="text;html=1;align=center;verticalAlign=middle;resizable=0;points=[];autosize=1;strokeColor=none;fillColor=none;" vertex="1" parent="1">
          <mxGeometry x="488.5" y="58" width="39" height="27" as="geometry" />
        </mxCell>
        <mxCell id="QPOlCD46UPtexKca2WSY-4" value="" style="endArrow=none;html=1;rounded=0;entryX=0.923;entryY=0.222;entryDx=0;entryDy=0;entryPerimeter=0;exitX=0.109;exitY=0.207;exitDx=0;exitDy=0;exitPerimeter=0;" edge="1" parent="1">
          <mxGeometry width="50" height="50" relative="1" as="geometry">
            <mxPoint x="452.555" y="78.63" as="sourcePoint" />
            <mxPoint x="562.445" y="79.98000000000002" as="targetPoint" />
            <Array as="points">
              <mxPoint x="525.33" y="79" />
            </Array>
          </mxGeometry>
        </mxCell>
        <mxCell id="QPOlCD46UPtexKca2WSY-7" value="&lt;font style=&quot;font-size: 9px;&quot;&gt;0.2.3&lt;/font&gt;" style="text;html=1;align=center;verticalAlign=middle;resizable=0;points=[];autosize=1;strokeColor=none;fillColor=none;" vertex="1" parent="1">
          <mxGeometry x="488.5" y="170" width="39" height="27" as="geometry" />
        </mxCell>
        <mxCell id="QPOlCD46UPtexKca2WSY-8" value="" style="endArrow=none;html=1;rounded=0;entryX=0.872;entryY=0.173;entryDx=0;entryDy=0;entryPerimeter=0;exitX=0.129;exitY=0.164;exitDx=0;exitDy=0;exitPerimeter=0;" edge="1" parent="1" source="jCJzLWTkMJZ6yQlzUb6Y-7" target="jCJzLWTkMJZ6yQlzUb6Y-7">
          <mxGeometry width="50" height="50" relative="1" as="geometry">
            <mxPoint x="457.49" y="190" as="sourcePoint" />
            <mxPoint x="557.505" y="190.56999999999994" as="targetPoint" />
            <Array as="points">
              <mxPoint x="527.49" y="191" />
            </Array>
          </mxGeometry>
        </mxCell>
        <mxCell id="QPOlCD46UPtexKca2WSY-9" value="&lt;font style=&quot;font-size: 9px;&quot;&gt;0.2.4&lt;/font&gt;" style="text;html=1;align=center;verticalAlign=middle;resizable=0;points=[];autosize=1;strokeColor=none;fillColor=none;" vertex="1" parent="1">
          <mxGeometry x="490.01" y="295" width="39" height="27" as="geometry" />
        </mxCell>
        <mxCell id="QPOlCD46UPtexKca2WSY-10" value="" style="endArrow=none;html=1;rounded=0;entryX=0.878;entryY=0.175;entryDx=0;entryDy=0;entryPerimeter=0;exitX=0.122;exitY=0.166;exitDx=0;exitDy=0;exitPerimeter=0;" edge="1" parent="1" source="heQETTPATZyXLhlPFw2C-6" target="heQETTPATZyXLhlPFw2C-6">
          <mxGeometry width="50" height="50" relative="1" as="geometry">
            <mxPoint x="459" y="315" as="sourcePoint" />
            <mxPoint x="559.015" y="315.56999999999994" as="targetPoint" />
            <Array as="points">
              <mxPoint x="529" y="316" />
            </Array>
          </mxGeometry>
        </mxCell>
        <mxCell id="QPOlCD46UPtexKca2WSY-11" value="&lt;font style=&quot;font-size: 9px;&quot;&gt;0.2.5&lt;/font&gt;" style="text;html=1;align=center;verticalAlign=middle;resizable=0;points=[];autosize=1;strokeColor=none;fillColor=none;" vertex="1" parent="1">
          <mxGeometry x="490.01" y="413" width="39" height="27" as="geometry" />
        </mxCell>
        <mxCell id="QPOlCD46UPtexKca2WSY-12" value="" style="endArrow=none;html=1;rounded=0;entryX=0.889;entryY=0.173;entryDx=0;entryDy=0;entryPerimeter=0;" edge="1" parent="1">
          <mxGeometry width="50" height="50" relative="1" as="geometry">
            <mxPoint x="461" y="433" as="sourcePoint" />
            <mxPoint x="559.015" y="433.56999999999994" as="targetPoint" />
            <Array as="points">
              <mxPoint x="529" y="434" />
            </Array>
          </mxGeometry>
        </mxCell>
        <mxCell id="QPOlCD46UPtexKca2WSY-13" value="&lt;font style=&quot;font-size: 9px;&quot;&gt;0.2.6&lt;/font&gt;" style="text;html=1;align=center;verticalAlign=middle;resizable=0;points=[];autosize=1;strokeColor=none;fillColor=none;" vertex="1" parent="1">
          <mxGeometry x="492.01" y="553" width="39" height="27" as="geometry" />
        </mxCell>
        <mxCell id="QPOlCD46UPtexKca2WSY-14" value="" style="endArrow=none;html=1;rounded=0;entryX=0.848;entryY=0.151;entryDx=0;entryDy=0;entryPerimeter=0;" edge="1" parent="1" target="6Sa6cGBuMIRTcSy8QH_b-5">
          <mxGeometry width="50" height="50" relative="1" as="geometry">
            <mxPoint x="461" y="573" as="sourcePoint" />
            <mxPoint x="561.015" y="573.5699999999999" as="targetPoint" />
            <Array as="points">
              <mxPoint x="531" y="574" />
            </Array>
          </mxGeometry>
        </mxCell>
        <mxCell id="-uY8rYuYN9GTtcxcWM5F-1" value="" style="rounded=0;whiteSpace=wrap;html=1;fillColor=none;strokeWidth=4;" vertex="1" parent="1">
          <mxGeometry y="46" width="785" height="618" as="geometry" />
        </mxCell>
      </root>
    </mxGraphModel>
  </diagram>
  <diagram id="ZTSMHaQFDzcRaHb4vPUC" name="Level 1.3">
    <mxGraphModel grid="1" page="1" gridSize="2" guides="1" tooltips="1" connect="1" arrows="1" fold="1" pageScale="1" pageWidth="850" pageHeight="1100" math="0" shadow="0">
      <root>
        <mxCell id="0" />
        <mxCell id="1" parent="0" />
        <mxCell id="WBorLRapOBbHa1K9CPGk-2" value="Organisation/ club/ society" style="rounded=0;whiteSpace=wrap;html=1;" vertex="1" parent="1">
          <mxGeometry x="32" y="316" width="120" height="60" as="geometry" />
        </mxCell>
        <mxCell id="WBorLRapOBbHa1K9CPGk-3" style="edgeStyle=orthogonalEdgeStyle;rounded=0;orthogonalLoop=1;jettySize=auto;html=1;" edge="1" parent="1" source="WBorLRapOBbHa1K9CPGk-5" target="WBorLRapOBbHa1K9CPGk-7">
          <mxGeometry relative="1" as="geometry" />
        </mxCell>
        <mxCell id="tbSGGVmup0Rn3gWyyAza-5" style="edgeStyle=none;rounded=0;orthogonalLoop=1;jettySize=auto;html=1;" edge="1" parent="1" source="WBorLRapOBbHa1K9CPGk-5">
          <mxGeometry relative="1" as="geometry">
            <mxPoint x="370" y="433" as="targetPoint" />
          </mxGeometry>
        </mxCell>
        <mxCell id="WBorLRapOBbHa1K9CPGk-5" value="Login" style="ellipse;whiteSpace=wrap;html=1;" vertex="1" parent="1">
          <mxGeometry x="186" y="388" width="135" height="90" as="geometry" />
        </mxCell>
        <mxCell id="WBorLRapOBbHa1K9CPGk-6" style="edgeStyle=orthogonalEdgeStyle;rounded=0;orthogonalLoop=1;jettySize=auto;html=1;entryX=0.617;entryY=0.97;entryDx=0;entryDy=0;entryPerimeter=0;exitX=0.638;exitY=0.046;exitDx=0;exitDy=0;exitPerimeter=0;" edge="1" parent="1" source="WBorLRapOBbHa1K9CPGk-7" target="WBorLRapOBbHa1K9CPGk-5">
          <mxGeometry relative="1" as="geometry">
            <mxPoint x="268" y="558" as="sourcePoint" />
            <mxPoint x="268.5" y="473" as="targetPoint" />
          </mxGeometry>
        </mxCell>
        <mxCell id="WBorLRapOBbHa1K9CPGk-7" value="Organisation Table" style="html=1;dashed=0;whiteSpace=wrap;shape=partialRectangle;right=0;left=0;" vertex="1" parent="1">
          <mxGeometry x="198.5" y="558" width="110" height="50" as="geometry" />
        </mxCell>
        <mxCell id="WBorLRapOBbHa1K9CPGk-8" style="edgeStyle=orthogonalEdgeStyle;rounded=0;orthogonalLoop=1;jettySize=auto;html=1;entryX=0;entryY=0.5;entryDx=0;entryDy=0;" edge="1" parent="1" source="WBorLRapOBbHa1K9CPGk-9" target="WBorLRapOBbHa1K9CPGk-12">
          <mxGeometry relative="1" as="geometry" />
        </mxCell>
        <mxCell id="WBorLRapOBbHa1K9CPGk-9" value="Update Profile, &lt;br&gt;change password, delete account" style="ellipse;whiteSpace=wrap;html=1;" vertex="1" parent="1">
          <mxGeometry x="508" y="231" width="135" height="90" as="geometry" />
        </mxCell>
        <mxCell id="WBorLRapOBbHa1K9CPGk-10" value="Add, update, delete, &lt;br&gt;view, search events" style="ellipse;whiteSpace=wrap;html=1;" vertex="1" parent="1">
          <mxGeometry x="508" y="401" width="140" height="90" as="geometry" />
        </mxCell>
        <mxCell id="WBorLRapOBbHa1K9CPGk-11" style="edgeStyle=orthogonalEdgeStyle;rounded=0;orthogonalLoop=1;jettySize=auto;html=1;entryX=0.967;entryY=0.671;entryDx=0;entryDy=0;entryPerimeter=0;" edge="1" parent="1" target="WBorLRapOBbHa1K9CPGk-9">
          <mxGeometry relative="1" as="geometry">
            <mxPoint x="728" y="291" as="sourcePoint" />
            <mxPoint x="643" y="291" as="targetPoint" />
          </mxGeometry>
        </mxCell>
        <mxCell id="WBorLRapOBbHa1K9CPGk-12" value="Organisation Table" style="html=1;dashed=0;whiteSpace=wrap;shape=partialRectangle;right=0;left=0;" vertex="1" parent="1">
          <mxGeometry x="728" y="251" width="110" height="50" as="geometry" />
        </mxCell>
        <mxCell id="WBorLRapOBbHa1K9CPGk-13" value="RideListing Table" style="html=1;dashed=0;whiteSpace=wrap;shape=partialRectangle;right=0;left=0;" vertex="1" parent="1">
          <mxGeometry x="730.5" y="421" width="110" height="50" as="geometry" />
        </mxCell>
        <mxCell id="WBorLRapOBbHa1K9CPGk-23" style="edgeStyle=orthogonalEdgeStyle;rounded=0;orthogonalLoop=1;jettySize=auto;html=1;entryX=0.969;entryY=0.669;entryDx=0;entryDy=0;entryPerimeter=0;" edge="1" parent="1" target="WBorLRapOBbHa1K9CPGk-10">
          <mxGeometry relative="1" as="geometry">
            <mxPoint x="734.5" y="461" as="sourcePoint" />
            <mxPoint x="645.5" y="461" as="targetPoint" />
          </mxGeometry>
        </mxCell>
        <mxCell id="WBorLRapOBbHa1K9CPGk-24" style="edgeStyle=orthogonalEdgeStyle;rounded=0;orthogonalLoop=1;jettySize=auto;html=1;entryX=0;entryY=0.5;entryDx=0;entryDy=0;" edge="1" parent="1">
          <mxGeometry relative="1" as="geometry">
            <mxPoint x="649.5" y="446" as="sourcePoint" />
            <mxPoint x="734.5" y="446" as="targetPoint" />
          </mxGeometry>
        </mxCell>
        <mxCell id="WBorLRapOBbHa1K9CPGk-31" value="" style="endArrow=none;html=1;rounded=0;" edge="1" parent="1">
          <mxGeometry width="50" height="50" relative="1" as="geometry">
            <mxPoint x="458" y="441" as="sourcePoint" />
            <mxPoint x="458" y="281" as="targetPoint" />
          </mxGeometry>
        </mxCell>
        <mxCell id="tbSGGVmup0Rn3gWyyAza-4" style="edgeStyle=none;rounded=0;orthogonalLoop=1;jettySize=auto;html=1;" edge="1" parent="1" source="WBorLRapOBbHa1K9CPGk-36">
          <mxGeometry relative="1" as="geometry">
            <mxPoint x="372" y="267" as="targetPoint" />
          </mxGeometry>
        </mxCell>
        <mxCell id="WBorLRapOBbHa1K9CPGk-36" value="Register" style="ellipse;whiteSpace=wrap;html=1;" vertex="1" parent="1">
          <mxGeometry x="186" y="222" width="135" height="90" as="geometry" />
        </mxCell>
        <mxCell id="WBorLRapOBbHa1K9CPGk-41" style="edgeStyle=none;rounded=0;orthogonalLoop=1;jettySize=auto;html=1;entryX=0.406;entryY=0.988;entryDx=0;entryDy=0;entryPerimeter=0;" edge="1" parent="1" target="WBorLRapOBbHa1K9CPGk-38">
          <mxGeometry relative="1" as="geometry">
            <mxPoint x="244" y="223" as="sourcePoint" />
            <mxPoint x="244" y="148" as="targetPoint" />
          </mxGeometry>
        </mxCell>
        <mxCell id="q7bhwzdKjxkvEzScLCal-4" style="edgeStyle=none;rounded=0;orthogonalLoop=1;jettySize=auto;html=1;entryX=0;entryY=0.5;entryDx=0;entryDy=0;" edge="1" parent="1" source="WBorLRapOBbHa1K9CPGk-38" target="q7bhwzdKjxkvEzScLCal-3">
          <mxGeometry relative="1" as="geometry" />
        </mxCell>
        <mxCell id="WBorLRapOBbHa1K9CPGk-38" value="Admin" style="rounded=0;whiteSpace=wrap;html=1;" vertex="1" parent="1">
          <mxGeometry x="196.5" y="76" width="120" height="60" as="geometry" />
        </mxCell>
        <mxCell id="YXFrB62cxvYMC835TunZ-1" value="" style="endArrow=classic;html=1;rounded=0;" edge="1" parent="1">
          <mxGeometry width="50" height="50" relative="1" as="geometry">
            <mxPoint x="458" y="441" as="sourcePoint" />
            <mxPoint x="508" y="441" as="targetPoint" />
          </mxGeometry>
        </mxCell>
        <mxCell id="YXFrB62cxvYMC835TunZ-2" value="" style="endArrow=classic;html=1;rounded=0;" edge="1" parent="1">
          <mxGeometry width="50" height="50" relative="1" as="geometry">
            <mxPoint x="458" y="281" as="sourcePoint" />
            <mxPoint x="508" y="281" as="targetPoint" />
          </mxGeometry>
        </mxCell>
        <mxCell id="x_5T6zAv_Hf0q9YfTEGP-1" value="" style="endArrow=none;html=1;rounded=0;entryX=0.889;entryY=0.173;entryDx=0;entryDy=0;entryPerimeter=0;" edge="1" parent="1">
          <mxGeometry width="50" height="50" relative="1" as="geometry">
            <mxPoint x="203.49" y="403" as="sourcePoint" />
            <mxPoint x="303.505" y="403.56999999999994" as="targetPoint" />
            <Array as="points">
              <mxPoint x="273.49" y="404" />
            </Array>
          </mxGeometry>
        </mxCell>
        <mxCell id="x_5T6zAv_Hf0q9YfTEGP-2" value="&lt;font style=&quot;font-size: 10px;&quot;&gt;0.3.2&lt;/font&gt;" style="text;html=1;align=center;verticalAlign=middle;resizable=0;points=[];autosize=1;strokeColor=none;fillColor=none;" vertex="1" parent="1">
          <mxGeometry x="232.5" y="382" width="42" height="28" as="geometry" />
        </mxCell>
        <mxCell id="x_5T6zAv_Hf0q9YfTEGP-3" value="&lt;font style=&quot;font-size: 9px;&quot;&gt;0.3.1&lt;/font&gt;" style="text;html=1;align=center;verticalAlign=middle;resizable=0;points=[];autosize=1;strokeColor=none;fillColor=none;" vertex="1" parent="1">
          <mxGeometry x="233.5" y="216" width="40" height="28" as="geometry" />
        </mxCell>
        <mxCell id="x_5T6zAv_Hf0q9YfTEGP-4" value="" style="endArrow=none;html=1;rounded=0;entryX=0.889;entryY=0.173;entryDx=0;entryDy=0;entryPerimeter=0;" edge="1" parent="1">
          <mxGeometry width="50" height="50" relative="1" as="geometry">
            <mxPoint x="203.49" y="237" as="sourcePoint" />
            <mxPoint x="303.505" y="237.56999999999994" as="targetPoint" />
            <Array as="points">
              <mxPoint x="273.49" y="238" />
            </Array>
          </mxGeometry>
        </mxCell>
        <mxCell id="x_5T6zAv_Hf0q9YfTEGP-5" value="" style="endArrow=none;html=1;rounded=0;entryX=0.889;entryY=0.173;entryDx=0;entryDy=0;entryPerimeter=0;" edge="1" parent="1">
          <mxGeometry width="50" height="50" relative="1" as="geometry">
            <mxPoint x="525.49" y="245" as="sourcePoint" />
            <mxPoint x="625.505" y="245.56999999999994" as="targetPoint" />
            <Array as="points">
              <mxPoint x="595.49" y="246" />
            </Array>
          </mxGeometry>
        </mxCell>
        <mxCell id="x_5T6zAv_Hf0q9YfTEGP-6" value="&lt;font style=&quot;font-size: 10px;&quot;&gt;0.3.3&lt;/font&gt;" style="text;html=1;align=center;verticalAlign=middle;resizable=0;points=[];autosize=1;strokeColor=none;fillColor=none;" vertex="1" parent="1">
          <mxGeometry x="554.5" y="224" width="42" height="28" as="geometry" />
        </mxCell>
        <mxCell id="x_5T6zAv_Hf0q9YfTEGP-7" value="" style="endArrow=none;html=1;rounded=0;exitX=0;exitY=0;exitDx=0;exitDy=0;" edge="1" parent="1" source="WBorLRapOBbHa1K9CPGk-10">
          <mxGeometry width="50" height="50" relative="1" as="geometry">
            <mxPoint x="527.99" y="413" as="sourcePoint" />
            <mxPoint x="628" y="414" as="targetPoint" />
            <Array as="points">
              <mxPoint x="597.99" y="414" />
            </Array>
          </mxGeometry>
        </mxCell>
        <mxCell id="x_5T6zAv_Hf0q9YfTEGP-8" value="&lt;font style=&quot;font-size: 10px;&quot;&gt;0.3.4&lt;/font&gt;" style="text;html=1;align=center;verticalAlign=middle;resizable=0;points=[];autosize=1;strokeColor=none;fillColor=none;" vertex="1" parent="1">
          <mxGeometry x="557" y="393" width="42" height="28" as="geometry" />
        </mxCell>
        <mxCell id="q7bhwzdKjxkvEzScLCal-2" style="edgeStyle=none;rounded=0;orthogonalLoop=1;jettySize=auto;html=1;" edge="1" parent="1" source="WBorLRapOBbHa1K9CPGk-38">
          <mxGeometry relative="1" as="geometry">
            <mxPoint x="256" y="222" as="targetPoint" />
          </mxGeometry>
        </mxCell>
        <mxCell id="q7bhwzdKjxkvEzScLCal-5" style="edgeStyle=none;rounded=0;orthogonalLoop=1;jettySize=auto;html=1;entryX=1;entryY=0.5;entryDx=0;entryDy=0;" edge="1" parent="1">
          <mxGeometry relative="1" as="geometry">
            <mxPoint x="386" y="112" as="sourcePoint" />
            <mxPoint x="316.5" y="112" as="targetPoint" />
          </mxGeometry>
        </mxCell>
        <mxCell id="q7bhwzdKjxkvEzScLCal-3" value="Organisation Table" style="html=1;dashed=0;whiteSpace=wrap;shape=partialRectangle;right=0;left=0;" vertex="1" parent="1">
          <mxGeometry x="386" y="81" width="110" height="50" as="geometry" />
        </mxCell>
        <mxCell id="tbSGGVmup0Rn3gWyyAza-1" value="" style="endArrow=none;html=1;rounded=0;" edge="1" parent="1">
          <mxGeometry width="50" height="50" relative="1" as="geometry">
            <mxPoint x="370" y="434" as="sourcePoint" />
            <mxPoint x="370" y="268" as="targetPoint" />
          </mxGeometry>
        </mxCell>
        <mxCell id="tbSGGVmup0Rn3gWyyAza-2" value="" style="endArrow=classic;html=1;rounded=0;" edge="1" parent="1">
          <mxGeometry width="50" height="50" relative="1" as="geometry">
            <mxPoint x="370" y="362" as="sourcePoint" />
            <mxPoint x="456" y="362.29" as="targetPoint" />
          </mxGeometry>
        </mxCell>
        <mxCell id="tbSGGVmup0Rn3gWyyAza-6" style="edgeStyle=none;rounded=0;orthogonalLoop=1;jettySize=auto;html=1;entryX=0.008;entryY=0.592;entryDx=0;entryDy=0;entryPerimeter=0;" edge="1" parent="1" source="WBorLRapOBbHa1K9CPGk-2" target="WBorLRapOBbHa1K9CPGk-36">
          <mxGeometry relative="1" as="geometry" />
        </mxCell>
        <mxCell id="tbSGGVmup0Rn3gWyyAza-7" style="edgeStyle=none;rounded=0;orthogonalLoop=1;jettySize=auto;html=1;entryX=0.015;entryY=0.4;entryDx=0;entryDy=0;entryPerimeter=0;" edge="1" parent="1" source="WBorLRapOBbHa1K9CPGk-2" target="WBorLRapOBbHa1K9CPGk-5">
          <mxGeometry relative="1" as="geometry" />
        </mxCell>
        <mxCell id="-YNj0gFVwhjKCh6jDa7f-1" value="" style="rounded=0;whiteSpace=wrap;html=1;fillColor=none;strokeWidth=4;" vertex="1" parent="1">
          <mxGeometry x="22" y="60" width="826" height="566" as="geometry" />
        </mxCell>
      </root>
    </mxGraphModel>
  </diagram>
</mxfile>
